<svg width="20" height="20" viewBox="0 0 20 20" fill="none" xmlns="http://www.w3.org/2000/svg">
<path d="M0 10C0 4.47715 4.47715 0 10 0C15.5228 0 20 4.47715 20 10C20 15.5228 15.5228 20 10 20C4.47715 20 0 15.5228 0 10Z" fill="#E5E7EB"/>
<path d="M8.87207 11.9648C8.88574 10.2285 9.37793 9.69531 10.2393 9.16211C10.8271 8.79297 11.2646 8.32812 11.2646 7.64453C11.2646 6.87891 10.6768 6.38672 9.9248 6.38672C9.24121 6.38672 8.58496 6.82422 8.54395 7.74023H6.83496C6.87598 5.9082 8.25684 4.96484 9.93848 4.96484C11.7842 4.96484 13.0557 5.99023 13.0557 7.61719C13.0557 8.72461 12.4951 9.44922 11.6064 9.98242C10.8135 10.4609 10.4854 10.9395 10.4717 11.9648V12.0879H8.87207V11.9648ZM9.71973 15.1094C9.13184 15.1094 8.65332 14.6309 8.65332 14.043C8.65332 13.4688 9.13184 12.9902 9.71973 12.9902C10.2803 12.9902 10.7725 13.4688 10.7725 14.043C10.7725 14.6309 10.2803 15.1094 9.71973 15.1094Z" fill="#6A7282"/>
</svg>
