<svg width="24" height="24" viewBox="0 0 24 24" fill="none" xmlns="http://www.w3.org/2000/svg">
<path fill-rule="evenodd" clip-rule="evenodd" d="M12 18.4C15.5346 18.4 18.4 15.5346 18.4 12C18.4 8.46538 15.5346 5.6 12 5.6C8.46538 5.6 5.6 8.46538 5.6 12C5.6 15.5346 8.46538 18.4 12 18.4ZM20 12C20 16.4183 16.4183 20 12 20C7.58172 20 4 16.4183 4 12C4 7.58172 7.58172 4 12 4C16.4183 4 20 7.58172 20 12Z" fill="#3B82F6"/>
<path fill-rule="evenodd" clip-rule="evenodd" d="M12 6.80005C12.4418 6.80005 12.8 7.15822 12.8 7.60005V11.5056L15.5577 12.8845C15.9529 13.0821 16.1131 13.5626 15.9155 13.9578C15.7179 14.353 15.2374 14.5132 14.8422 14.3156L11.6422 12.7156C11.3712 12.5801 11.2 12.3031 11.2 12V7.60005C11.2 7.15822 11.5581 6.80005 12 6.80005Z" fill="#3B82F6"/>
</svg>
